<svg width="52" height="49" viewBox="0 0 52 49" fill="none" xmlns="http://www.w3.org/2000/svg">
<rect width="41" height="4" fill="url(#paint0_linear_277_795)"/>
<path d="M11.5017 40.288C9.7257 40.288 8.1657 39.916 6.8217 39.172C5.4777 38.404 4.4337 37.336 3.6897 35.968C2.9457 34.6 2.5737 33.016 2.5737 31.216V14.8H7.5417V31.072C7.5417 32.512 7.9017 33.676 8.6217 34.564C9.3657 35.452 10.3257 35.896 11.5017 35.896H15.3177C16.5177 35.896 17.4897 35.452 18.2337 34.564C18.9777 33.676 19.3497 32.512 19.3497 31.072V14.8H24.3177V31.216C24.3177 33.016 23.9457 34.6 23.2017 35.968C22.4577 37.336 21.4017 38.404 20.0337 39.172C18.6657 39.916 17.0937 40.288 15.3177 40.288H11.5017ZM29.3479 14.8H42.7399C44.9239 14.8 46.6759 15.388 47.9959 16.564C49.3399 17.74 50.0119 19.288 50.0119 21.208V23.728C50.0119 24.976 49.6519 26.068 48.9319 27.004C48.2359 27.916 47.2159 28.612 45.8719 29.092V29.164C46.6399 29.668 47.2159 30.244 47.5999 30.892C48.0079 31.54 48.4039 32.44 48.7879 33.592L50.8039 40H45.6559L43.7479 34.024C43.4359 32.992 43.0039 32.224 42.4519 31.72C41.8999 31.216 41.2159 30.964 40.3999 30.964H34.3159V40H29.3479V14.8ZM41.8039 26.68C42.8119 26.68 43.6039 26.416 44.1799 25.888C44.7559 25.336 45.0439 24.628 45.0439 23.764V21.424C45.0439 20.728 44.8279 20.176 44.3959 19.768C43.9639 19.336 43.3879 19.12 42.6679 19.12H34.3159V26.68H41.8039Z" fill="url(#paint1_linear_277_795)"/>
<defs>
<linearGradient id="paint0_linear_277_795" x1="41" y1="2" x2="-2.16671e-07" y2="2" gradientUnits="userSpaceOnUse">
<stop stop-color="#FF8E57"/>
<stop offset="0.519856" stop-color="#FD696B"/>
<stop offset="1" stop-color="#BB6BDA"/>
</linearGradient>
<linearGradient id="paint1_linear_277_795" x1="9.44561e-08" y1="24.4546" x2="52" y2="24.4546" gradientUnits="userSpaceOnUse">
<stop stop-color="#B16CEA"/>
<stop offset="0.502939" stop-color="#FC5F70"/>
<stop offset="1" stop-color="#FF9453"/>
</linearGradient>
</defs>
</svg>
