<svg width="27" height="21" viewBox="0 0 27 21" fill="none" xmlns="http://www.w3.org/2000/svg">
<g clip-path="url(#clip0_276_671)">
<path d="M6.13638 20.4016V10.1519L2.90113 7.24379L0 5.63V18.5928C0 19.5936 0.825293 20.4016 1.84096 20.4016H6.13638Z" fill="#4285F4"/>
<path d="M20.8638 20.4015H25.1592C26.1779 20.4015 27.0002 19.5905 27.0002 18.5927V5.63L23.7142 7.4784L20.8638 10.1518V20.4015Z" fill="#34A853"/>
<path d="M6.13652 10.1518L5.69629 6.1469L6.13652 2.31384L13.5001 7.74016L20.8637 2.31384L21.3562 5.93996L20.8637 10.1518L13.5001 15.5781L6.13652 10.1518Z" fill="#EA4335"/>
<path d="M20.8638 2.31385V10.1518L27.0002 5.62992V3.21821C27.0002 0.981419 24.4014 -0.293711 22.5821 1.04774L20.8638 2.31385Z" fill="#FBBC04"/>
<path d="M0 5.62996L2.82224 7.70976L6.13638 10.1518V2.3139L4.41809 1.04779C2.59559 -0.293767 0 0.981466 0 3.21815V5.62986V5.62996Z" fill="#C5221F"/>
</g>
<defs>
<clipPath id="clip0_276_671">
<rect width="27" height="20" fill="white" transform="translate(0 0.5)"/>
</clipPath>
</defs>
</svg>
